<?xml version="1.0" encoding="UTF-8" standalone="no"?>
<!DOCTYPE svg PUBLIC "-//W3C//DTD SVG 1.1//EN"
 "http://www.w3.org/Graphics/SVG/1.1/DTD/svg11.dtd">
<!-- Generated by graphviz version 12.2.1 (20241206.2353)
 -->
<!-- Title: AmalfaSystem Pages: 1 -->
<svg width="477pt" height="427pt"
 viewBox="0.00 0.00 477.00 427.25" xmlns="http://www.w3.org/2000/svg" xmlns:xlink="http://www.w3.org/1999/xlink">
<g id="graph0" class="graph" transform="scale(1 1) rotate(0) translate(4 423.25)">
<title>AmalfaSystem</title>
<polygon fill="white" stroke="none" points="-4,4 -4,-423.25 473,-423.25 473,4 -4,4"/>
<g id="clust1" class="cluster">
<title>cluster_World</title>
<polygon fill="none" stroke="black" points="219,-125.25 219,-202.75 461,-202.75 461,-125.25 219,-125.25"/>
<text text-anchor="middle" x="340" y="-185.45" font-family="Times,serif" font-size="14.00">External World</text>
</g>
<g id="clust2" class="cluster">
<title>cluster_Amalfa</title>
<polygon fill="none" stroke="black" points="8,-123.5 8,-411.25 211,-411.25 211,-123.5 8,-123.5"/>
<text text-anchor="middle" x="109.5" y="-393.95" font-family="Times,serif" font-size="14.00">Amalfa Runtime</text>
</g>
<g id="clust3" class="cluster">
<title>cluster_Batch</title>
<polygon fill="none" stroke="black" points="175,-8 175,-89 279,-89 279,-8 175,-8"/>
<text text-anchor="middle" x="227" y="-71.7" font-family="Times,serif" font-size="14.00">Maintenance</text>
</g>
<!-- Docs -->
<g id="node1" class="node">
<title>Docs</title>
<polygon fill="none" stroke="black" points="227.25,-133.75 227.25,-169.75 340.75,-169.75 340.75,-133.75 227.25,-133.75"/>
<text text-anchor="middle" x="284" y="-146.32" font-family="Arial" font-size="14.00">Markdown Docs</text>
</g>
<!-- Ingest -->
<g id="node3" class="node">
<title>Ingest</title>
<polygon fill="none" stroke="black" points="88.38,-338.75 88.38,-378.25 163.62,-378.25 163.62,-338.75 88.38,-338.75"/>
<text text-anchor="middle" x="126" y="-360.95" font-family="Arial" font-size="14.00">Ingest</text>
<text text-anchor="middle" x="126" y="-345.2" font-family="Arial" font-size="14.00">(Watcher)</text>
</g>
<!-- Docs&#45;&gt;Ingest -->
<g id="edge1" class="edge">
<title>Docs&#45;&gt;Ingest</title>
<path fill="none" stroke="black" d="M282.24,-170.18C277.98,-203.68 264.09,-277.49 222,-320.25 209.24,-333.21 191.47,-341.75 174.67,-347.34"/>
<polygon fill="black" stroke="black" points="173.86,-343.93 165.29,-350.17 175.88,-350.63 173.86,-343.93"/>
<text text-anchor="middle" x="285.24" y="-260.45" font-family="Times,serif" font-size="14.00">Modify</text>
</g>
<!-- Code -->
<g id="node2" class="node">
<title>Code</title>
<polygon fill="none" stroke="black" points="358.62,-133.75 358.62,-169.75 453.38,-169.75 453.38,-133.75 358.62,-133.75"/>
<text text-anchor="middle" x="406" y="-146.32" font-family="Arial" font-size="14.00">Source Code</text>
</g>
<!-- DB -->
<g id="node4" class="node">
<title>DB</title>
<polygon fill="none" stroke="black" points="99.5,-245.75 99.5,-285.25 202.5,-285.25 202.5,-245.75 99.5,-245.75"/>
<text text-anchor="middle" x="151" y="-267.95" font-family="Arial" font-size="14.00">ResonanceDB</text>
<text text-anchor="middle" x="151" y="-252.2" font-family="Arial" font-size="14.00">(Graph Store)</text>
</g>
<!-- Ingest&#45;&gt;DB -->
<g id="edge2" class="edge">
<title>Ingest&#45;&gt;DB</title>
<path fill="none" stroke="black" d="M131.18,-338.64C134.51,-326.52 138.91,-310.51 142.72,-296.65"/>
<polygon fill="black" stroke="black" points="146.07,-297.67 145.34,-287.1 139.32,-295.82 146.07,-297.67"/>
<text text-anchor="middle" x="179.36" y="-306.95" font-family="Times,serif" font-size="14.00">Update Nodes</text>
</g>
<!-- Enrich -->
<g id="node5" class="node">
<title>Enrich</title>
<polygon fill="none" stroke="black" points="16.25,-245.75 16.25,-285.25 81.75,-285.25 81.75,-245.75 16.25,-245.75"/>
<text text-anchor="middle" x="49" y="-267.95" font-family="Arial" font-size="14.00">Enrich</text>
<text text-anchor="middle" x="49" y="-252.2" font-family="Arial" font-size="14.00">(Ember)</text>
</g>
<!-- Ingest&#45;&gt;Enrich -->
<g id="edge3" class="edge">
<title>Ingest&#45;&gt;Enrich</title>
<path fill="none" stroke="black" d="M107.8,-338.43C102.46,-332.67 96.66,-326.28 91.5,-320.25 84.53,-312.11 77.2,-303.04 70.63,-294.71"/>
<polygon fill="black" stroke="black" points="73.44,-292.62 64.53,-286.89 67.92,-296.92 73.44,-292.62"/>
<text text-anchor="middle" x="111.75" y="-306.95" font-family="Times,serif" font-size="14.00">Trigger</text>
</g>
<!-- DB&#45;&gt;Docs -->
<g id="edge7" class="edge">
<title>DB&#45;&gt;Docs</title>
<path fill="none" stroke="black" d="M157.16,-245.39C161.89,-233.7 169.57,-219.38 181,-210.75 193.39,-201.4 200.88,-209.21 215,-202.75 229.33,-196.19 243.68,-186.44 255.56,-177.28"/>
<polygon fill="black" stroke="black" points="257.69,-180.05 263.32,-171.08 253.32,-174.58 257.69,-180.05"/>
<text text-anchor="middle" x="214" y="-213.95" font-family="Times,serif" font-size="14.00">Query/RAG</text>
</g>
<!-- Sidecar -->
<g id="node6" class="node">
<title>Sidecar</title>
<polygon fill="none" stroke="black" points="94.12,-132 94.12,-171.5 155.88,-171.5 155.88,-132 94.12,-132"/>
<text text-anchor="middle" x="125" y="-154.2" font-family="Arial" font-size="14.00">Sidecar</text>
<text text-anchor="middle" x="125" y="-138.45" font-family="Arial" font-size="14.00">(JSON)</text>
</g>
<!-- Enrich&#45;&gt;Sidecar -->
<g id="edge4" class="edge">
<title>Enrich&#45;&gt;Sidecar</title>
<path fill="none" stroke="black" d="M62.06,-245.29C74.1,-227.59 92.11,-201.11 105.79,-181"/>
<polygon fill="black" stroke="black" points="108.52,-183.2 111.25,-172.96 102.74,-179.26 108.52,-183.2"/>
<text text-anchor="middle" x="109.1" y="-213.95" font-family="Times,serif" font-size="14.00">Generate</text>
</g>
<!-- Consolidate -->
<g id="node7" class="node">
<title>Consolidate</title>
<polygon fill="none" stroke="black" points="183.38,-16.5 183.38,-56 270.62,-56 270.62,-16.5 183.38,-16.5"/>
<text text-anchor="middle" x="227" y="-38.7" font-family="Arial" font-size="14.00">Consolidate</text>
<text text-anchor="middle" x="227" y="-22.95" font-family="Arial" font-size="14.00">(Squash)</text>
</g>
<!-- Sidecar&#45;&gt;Consolidate -->
<g id="edge5" class="edge">
<title>Sidecar&#45;&gt;Consolidate</title>
<path fill="none" stroke="black" d="M142.07,-131.75C158.55,-113.42 183.67,-85.47 202.32,-64.71"/>
<polygon fill="black" stroke="black" points="204.78,-67.21 208.86,-57.44 199.57,-62.53 204.78,-67.21"/>
<text text-anchor="middle" x="186.82" y="-100.2" font-family="Times,serif" font-size="14.00">Read</text>
</g>
<!-- Consolidate&#45;&gt;Docs -->
<g id="edge6" class="edge">
<title>Consolidate&#45;&gt;Docs</title>
<path fill="none" stroke="black" d="M236.5,-56.17C245.72,-74.53 259.82,-102.6 270.26,-123.39"/>
<polygon fill="black" stroke="black" points="267.05,-124.79 274.66,-132.16 273.3,-121.65 267.05,-124.79"/>
<text text-anchor="middle" x="319.44" y="-100.2" font-family="Times,serif" font-size="14.00">Enrich (Write Back)</text>
</g>
</g>
</svg>
