<?xml version="1.0" encoding="UTF-8" standalone="no"?>
<!DOCTYPE svg PUBLIC "-//W3C//DTD SVG 1.1//EN"
 "http://www.w3.org/Graphics/SVG/1.1/DTD/svg11.dtd">
<!-- Generated by graphviz version 12.2.1 (20241206.2353)
 -->
<!-- Title: ExtractService Pages: 1 -->
<svg width="293pt" height="496pt"
 viewBox="0.00 0.00 292.50 496.00" xmlns="http://www.w3.org/2000/svg" xmlns:xlink="http://www.w3.org/1999/xlink">
<g id="graph0" class="graph" transform="scale(1 1) rotate(0) translate(4 492)">
<title>ExtractService</title>
<polygon fill="white" stroke="none" points="-4,4 -4,-492 288.5,-492 288.5,4 -4,4"/>
<!-- Request -->
<g id="node1" class="node">
<title>Request</title>
<polygon fill="none" stroke="black" points="215,-488 91.75,-488 91.75,-447 215,-447 215,-488"/>
<text text-anchor="middle" x="153.38" y="-470.7" font-family="Courier New" font-size="14.00">Request</text>
<text text-anchor="middle" x="153.38" y="-454.2" font-family="Courier New" font-size="14.00">(from Enrich)</text>
</g>
<!-- CheckCache -->
<g id="node2" class="node">
<title>CheckCache</title>
<polygon fill="none" stroke="black" points="227.38,-410 79.38,-410 79.38,-369 227.38,-369 227.38,-410"/>
<text text-anchor="middle" x="153.38" y="-392.7" font-family="Courier New" font-size="14.00">Check Cache</text>
<text text-anchor="middle" x="153.38" y="-376.2" font-family="Courier New" font-size="14.00">(HarvesterCache)</text>
</g>
<!-- Request&#45;&gt;CheckCache -->
<g id="edge1" class="edge">
<title>Request&#45;&gt;CheckCache</title>
<path fill="none" stroke="black" d="M153.38,-446.53C153.38,-438.94 153.38,-430.1 153.38,-421.71"/>
<polygon fill="black" stroke="black" points="156.88,-421.85 153.38,-411.85 149.88,-421.85 156.88,-421.85"/>
</g>
<!-- Spawn -->
<g id="node3" class="node">
<title>Spawn</title>
<polygon fill="none" stroke="black" points="177.62,-316.5 13.12,-316.5 13.12,-275.5 177.62,-275.5 177.62,-316.5"/>
<text text-anchor="middle" x="95.38" y="-299.2" font-family="Courier New" font-size="14.00">Spawn Sidecar</text>
<text text-anchor="middle" x="95.38" y="-282.7" font-family="Courier New" font-size="14.00">(uv run server.py)</text>
</g>
<!-- CheckCache&#45;&gt;Spawn -->
<g id="edge3" class="edge">
<title>CheckCache&#45;&gt;Spawn</title>
<path fill="none" stroke="black" d="M140.79,-368.65C132.96,-356.3 122.75,-340.19 114,-326.38"/>
<polygon fill="black" stroke="black" points="117.06,-324.67 108.75,-318.09 111.14,-328.41 117.06,-324.67"/>
<text text-anchor="middle" x="143.07" y="-337.7" font-family="Times,serif" font-size="14.00">Miss</text>
</g>
<!-- Response -->
<g id="node6" class="node">
<title>Response</title>
<polygon fill="none" stroke="black" points="284.5,-36 128.25,-36 128.25,0 284.5,0 284.5,-36"/>
<text text-anchor="middle" x="206.38" y="-12.95" font-family="Courier New" font-size="14.00">Return Graph Data</text>
</g>
<!-- CheckCache&#45;&gt;Response -->
<g id="edge2" class="edge">
<title>CheckCache&#45;&gt;Response</title>
<path fill="none" stroke="black" d="M173.85,-368.73C189.49,-351.44 208.38,-324.8 208.38,-297 208.38,-297 208.38,-297 208.38,-108 208.38,-87.88 207.86,-65.21 207.35,-47.78"/>
<polygon fill="black" stroke="black" points="210.85,-47.79 207.04,-37.91 203.85,-48.01 210.85,-47.79"/>
<text text-anchor="middle" x="217" y="-197.45" font-family="Times,serif" font-size="14.00">Hit</text>
</g>
<!-- Provider -->
<g id="node4" class="node">
<title>Provider</title>
<polygon fill="none" stroke="black" points="172.75,-223 0,-223 0,-182 172.75,-182 172.75,-223"/>
<text text-anchor="middle" x="86.38" y="-205.7" font-family="Courier New" font-size="14.00">LLM Provider</text>
<text text-anchor="middle" x="86.38" y="-189.2" font-family="Courier New" font-size="14.00">(Gemini/OpenRouter)</text>
</g>
<!-- Spawn&#45;&gt;Provider -->
<g id="edge4" class="edge">
<title>Spawn&#45;&gt;Provider</title>
<path fill="none" stroke="black" d="M93.42,-275.15C92.25,-263.28 90.75,-247.94 89.42,-234.5"/>
<polygon fill="black" stroke="black" points="92.93,-234.43 88.47,-224.82 85.97,-235.12 92.93,-234.43"/>
<text text-anchor="middle" x="111.56" y="-244.2" font-family="Times,serif" font-size="14.00">STDIN</text>
</g>
<!-- Parse -->
<g id="node5" class="node">
<title>Parse</title>
<polygon fill="none" stroke="black" points="143.88,-129.5 28.88,-129.5 28.88,-88.5 143.88,-88.5 143.88,-129.5"/>
<text text-anchor="middle" x="86.38" y="-112.2" font-family="Courier New" font-size="14.00">Parse JSON</text>
<text text-anchor="middle" x="86.38" y="-95.7" font-family="Courier New" font-size="14.00">(Zod Schema)</text>
</g>
<!-- Provider&#45;&gt;Parse -->
<g id="edge5" class="edge">
<title>Provider&#45;&gt;Parse</title>
<path fill="none" stroke="black" d="M86.38,-181.65C86.38,-169.78 86.38,-154.44 86.38,-141"/>
<polygon fill="black" stroke="black" points="89.88,-141.33 86.38,-131.33 82.88,-141.33 89.88,-141.33"/>
<text text-anchor="middle" x="113" y="-150.7" font-family="Times,serif" font-size="14.00">STDOUT</text>
</g>
<!-- Parse&#45;&gt;Response -->
<g id="edge6" class="edge">
<title>Parse&#45;&gt;Response</title>
<path fill="none" stroke="black" d="M117.23,-88.04C125.5,-82.5 134.36,-76.39 142.38,-70.5 153.96,-61.99 166.34,-52.2 177.09,-43.45"/>
<polygon fill="black" stroke="black" points="179.01,-46.41 184.52,-37.36 174.57,-40.99 179.01,-46.41"/>
<text text-anchor="middle" x="178.15" y="-57.2" font-family="Times,serif" font-size="14.00">Valid</text>
</g>
<!-- Error -->
<g id="node7" class="node">
<title>Error</title>
<polygon fill="none" stroke="black" points="107.75,-36 1,-36 1,0 107.75,0 107.75,-36"/>
<text text-anchor="middle" x="54.38" y="-12.95" font-family="Courier New" font-size="14.00">Error State</text>
</g>
<!-- Parse&#45;&gt;Error -->
<g id="edge7" class="edge">
<title>Parse&#45;&gt;Error</title>
<path fill="none" stroke="black" d="M65.9,-88.18C61.63,-82.87 57.72,-76.84 55.38,-70.5 52.72,-63.35 51.73,-55.24 51.58,-47.61"/>
<polygon fill="black" stroke="black" points="55.07,-47.84 51.88,-37.74 48.08,-47.63 55.07,-47.84"/>
<text text-anchor="middle" x="98.88" y="-57.2" font-family="Times,serif" font-size="14.00">Invalid/SafeFail</text>
</g>
</g>
</svg>
