<?xml version="1.0" encoding="UTF-8" standalone="no"?>
<!DOCTYPE svg PUBLIC "-//W3C//DTD SVG 1.1//EN"
 "http://www.w3.org/Graphics/SVG/1.1/DTD/svg11.dtd">
<!-- Generated by graphviz version 12.2.1 (20241206.2353)
 -->
<!-- Title: EnrichService Pages: 1 -->
<svg width="1240pt" height="84pt"
 viewBox="0.00 0.00 1239.50 83.50" xmlns="http://www.w3.org/2000/svg" xmlns:xlink="http://www.w3.org/1999/xlink">
<g id="graph0" class="graph" transform="scale(1 1) rotate(0) translate(4 79.5)">
<title>EnrichService</title>
<polygon fill="white" stroke="none" points="-4,4 -4,-79.5 1235.5,-79.5 1235.5,4 -4,4"/>
<!-- Pending -->
<g id="node1" class="node">
<title>Pending</title>
<polygon fill="none" stroke="black" points="148,-42.5 0,-42.5 0,-1.5 148,-1.5 148,-42.5"/>
<text text-anchor="middle" x="74" y="-25.2" font-family="Courier New" font-size="14.00">Pending Sidecars</text>
<text text-anchor="middle" x="74" y="-8.7" font-family="Courier New" font-size="14.00">(*.ember.json)</text>
</g>
<!-- Consolidate -->
<g id="node2" class="node">
<title>Consolidate</title>
<polygon fill="none" stroke="black" points="449.75,-75.5 260.5,-75.5 260.5,-34.5 449.75,-34.5 449.75,-75.5"/>
<text text-anchor="middle" x="355.12" y="-58.2" font-family="Courier New" font-size="14.00">Consolidate Command</text>
<text text-anchor="middle" x="355.12" y="-41.7" font-family="Courier New" font-size="14.00">(amalfa ember squash)</text>
</g>
<!-- Pending&#45;&gt;Consolidate -->
<g id="edge1" class="edge">
<title>Pending&#45;&gt;Consolidate</title>
<path fill="none" stroke="black" d="M148.34,-30.67C179.1,-34.31 215.46,-38.61 248.98,-42.57"/>
<polygon fill="black" stroke="black" points="248.39,-46.02 258.73,-43.72 249.21,-39.07 248.39,-46.02"/>
<text text-anchor="middle" x="204.25" y="-44.66" font-family="Times,serif" font-size="14.00">Batch Process</text>
</g>
<!-- LoadFile -->
<g id="node3" class="node">
<title>LoadFile</title>
<polygon fill="none" stroke="black" points="610,-75.5 486.75,-75.5 486.75,-34.5 610,-34.5 610,-75.5"/>
<text text-anchor="middle" x="548.38" y="-58.2" font-family="Courier New" font-size="14.00">Load Markdown</text>
<text text-anchor="middle" x="548.38" y="-41.7" font-family="Courier New" font-size="14.00">(Read File)</text>
</g>
<!-- Consolidate&#45;&gt;LoadFile -->
<g id="edge2" class="edge">
<title>Consolidate&#45;&gt;LoadFile</title>
<path fill="none" stroke="black" d="M450.07,-55C458.48,-55 466.91,-55 475.09,-55"/>
<polygon fill="black" stroke="black" points="474.96,-58.5 484.96,-55 474.96,-51.5 474.96,-58.5"/>
</g>
<!-- Merge -->
<g id="node4" class="node">
<title>Merge</title>
<polygon fill="none" stroke="black" points="902.75,-75.5 697,-75.5 697,-34.5 902.75,-34.5 902.75,-75.5"/>
<text text-anchor="middle" x="799.88" y="-58.2" font-family="Courier New" font-size="14.00">Merge Metadata</text>
<text text-anchor="middle" x="799.88" y="-41.7" font-family="Courier New" font-size="14.00">(Frontmatter Injection)</text>
</g>
<!-- LoadFile&#45;&gt;Merge -->
<g id="edge3" class="edge">
<title>LoadFile&#45;&gt;Merge</title>
<path fill="none" stroke="black" d="M610.41,-55C633.03,-55 659.47,-55 685.27,-55"/>
<polygon fill="black" stroke="black" points="685.15,-58.5 695.15,-55 685.15,-51.5 685.15,-58.5"/>
</g>
<!-- WriteFile -->
<g id="node5" class="node">
<title>WriteFile</title>
<polygon fill="none" stroke="black" points="1063,-75.5 939.75,-75.5 939.75,-34.5 1063,-34.5 1063,-75.5"/>
<text text-anchor="middle" x="1001.38" y="-58.2" font-family="Courier New" font-size="14.00">Write File</text>
<text text-anchor="middle" x="1001.38" y="-41.7" font-family="Courier New" font-size="14.00">(Update Disk)</text>
</g>
<!-- Merge&#45;&gt;WriteFile -->
<g id="edge4" class="edge">
<title>Merge&#45;&gt;WriteFile</title>
<path fill="none" stroke="black" d="M902.96,-55C911.43,-55 919.88,-55 928.06,-55"/>
<polygon fill="black" stroke="black" points="927.91,-58.5 937.91,-55 927.91,-51.5 927.91,-58.5"/>
</g>
<!-- Cleanup -->
<g id="node6" class="node">
<title>Cleanup</title>
<polygon fill="none" stroke="black" points="1231.5,-36 1100,-36 1100,0 1231.5,0 1231.5,-36"/>
<text text-anchor="middle" x="1165.75" y="-12.95" font-family="Courier New" font-size="14.00">Delete Sidecar</text>
</g>
<!-- WriteFile&#45;&gt;Cleanup -->
<g id="edge5" class="edge">
<title>WriteFile&#45;&gt;Cleanup</title>
<path fill="none" stroke="black" d="M1063.3,-41.12C1071.56,-39.24 1080.12,-37.29 1088.6,-35.35"/>
<polygon fill="black" stroke="black" points="1089.23,-38.8 1098.21,-33.16 1087.68,-31.97 1089.23,-38.8"/>
</g>
<!-- Cleanup&#45;&gt;Pending -->
<g id="edge6" class="edge">
<title>Cleanup&#45;&gt;Pending</title>
<path fill="none" stroke="black" d="M1099.65,-10.98C1070.01,-8.36 1034.46,-6 1002.38,-6 354.12,-6 354.12,-6 354.12,-6 288.73,-6 214.87,-10.43 159.55,-14.63"/>
<polygon fill="black" stroke="black" points="159.6,-11.11 149.9,-15.38 160.14,-18.09 159.6,-11.11"/>
<text text-anchor="middle" x="653.5" y="-9.2" font-family="Times,serif" font-size="14.00">Next File</text>
</g>
</g>
</svg>
