<?xml version="1.0" encoding="UTF-8" standalone="no"?>
<!DOCTYPE svg PUBLIC "-//W3C//DTD SVG 1.1//EN"
 "http://www.w3.org/Graphics/SVG/1.1/DTD/svg11.dtd">
<!-- Generated by graphviz version 12.2.1 (20241206.2353)
 -->
<!-- Title: IngestService Pages: 1 -->
<svg width="1407pt" height="236pt"
 viewBox="0.00 0.00 1407.25 236.00" xmlns="http://www.w3.org/2000/svg" xmlns:xlink="http://www.w3.org/1999/xlink">
<g id="graph0" class="graph" transform="scale(1 1) rotate(0) translate(4 232)">
<title>IngestService</title>
<polygon fill="white" stroke="none" points="-4,4 -4,-232 1403.25,-232 1403.25,4 -4,4"/>
<!-- Idle -->
<g id="node1" class="node">
<title>Idle</title>
<polygon fill="none" stroke="black" points="98.5,-106 0,-106 0,-65 98.5,-65 98.5,-106"/>
<text text-anchor="middle" x="49.25" y="-88.7" font-family="Courier New" font-size="14.00">Idle</text>
<text text-anchor="middle" x="49.25" y="-72.2" font-family="Courier New" font-size="14.00">(Watching)</text>
</g>
<!-- ChangeDetected -->
<g id="node2" class="node">
<title>ChangeDetected</title>
<polygon fill="none" stroke="black" points="350,-126 210.25,-126 210.25,-85 350,-85 350,-126"/>
<text text-anchor="middle" x="280.12" y="-108.7" font-family="Courier New" font-size="14.00">Change Detected</text>
<text text-anchor="middle" x="280.12" y="-92.2" font-family="Courier New" font-size="14.00">(fs.watch)</text>
</g>
<!-- Idle&#45;&gt;ChangeDetected -->
<g id="edge1" class="edge">
<title>Idle&#45;&gt;ChangeDetected</title>
<path fill="none" stroke="black" d="M98.79,-89.74C127.79,-92.28 165.36,-95.56 198.69,-98.47"/>
<polygon fill="black" stroke="black" points="198.04,-101.93 208.31,-99.31 198.65,-94.95 198.04,-101.93"/>
<text text-anchor="middle" x="154.38" y="-101.08" font-family="Times,serif" font-size="14.00">File Modified</text>
</g>
<!-- Debounce -->
<g id="node3" class="node">
<title>Debounce</title>
<polygon fill="none" stroke="black" points="548.5,-134 466.5,-134 466.5,-93 548.5,-93 548.5,-134"/>
<text text-anchor="middle" x="507.5" y="-116.7" font-family="Courier New" font-size="14.00">Debounce</text>
<text text-anchor="middle" x="507.5" y="-100.2" font-family="Courier New" font-size="14.00">(Timer)</text>
</g>
<!-- ChangeDetected&#45;&gt;Debounce -->
<g id="edge2" class="edge">
<title>ChangeDetected&#45;&gt;Debounce</title>
<path fill="none" stroke="black" d="M350.28,-107.95C383.89,-109.15 423.62,-110.56 454.6,-111.66"/>
<polygon fill="black" stroke="black" points="454.38,-115.15 464.5,-112.01 454.63,-108.16 454.38,-115.15"/>
<text text-anchor="middle" x="404.38" y="-114.34" font-family="Times,serif" font-size="14.00">Add to Batch</text>
</g>
<!-- Debounce&#45;&gt;Debounce -->
<g id="edge3" class="edge">
<title>Debounce&#45;&gt;Debounce</title>
<path fill="none" stroke="black" d="M488.47,-134.49C486.65,-143.88 493,-152 507.5,-152 515.66,-152 521.23,-149.43 524.23,-145.51"/>
<polygon fill="black" stroke="black" points="527.6,-146.48 526.22,-135.97 520.75,-145.04 527.6,-146.48"/>
<text text-anchor="middle" x="507.5" y="-155.2" font-family="Times,serif" font-size="14.00">New Event</text>
</g>
<!-- Ingest -->
<g id="node4" class="node">
<title>Ingest</title>
<polygon fill="none" stroke="black" points="820.5,-139 672.5,-139 672.5,-98 820.5,-98 820.5,-139"/>
<text text-anchor="middle" x="746.5" y="-121.7" font-family="Courier New" font-size="14.00">Ingest</text>
<text text-anchor="middle" x="746.5" y="-105.2" font-family="Courier New" font-size="14.00">(AmalfaIngestor)</text>
</g>
<!-- Debounce&#45;&gt;Ingest -->
<g id="edge4" class="edge">
<title>Debounce&#45;&gt;Ingest</title>
<path fill="none" stroke="black" d="M548.97,-114.35C579.66,-115 622.9,-115.91 661.02,-116.72"/>
<polygon fill="black" stroke="black" points="660.56,-120.21 670.63,-116.92 660.71,-113.21 660.56,-120.21"/>
<text text-anchor="middle" x="614.38" y="-119.65" font-family="Times,serif" font-size="14.00">Timer Expired</text>
</g>
<!-- TriggerEnrich -->
<g id="node5" class="node">
<title>TriggerEnrich</title>
<polygon fill="none" stroke="black" points="1096.75,-184 965.25,-184 965.25,-143 1096.75,-143 1096.75,-184"/>
<text text-anchor="middle" x="1031" y="-166.7" font-family="Courier New" font-size="14.00">Trigger Enrich</text>
<text text-anchor="middle" x="1031" y="-150.2" font-family="Courier New" font-size="14.00">(Ember)</text>
</g>
<!-- Ingest&#45;&gt;TriggerEnrich -->
<g id="edge5" class="edge">
<title>Ingest&#45;&gt;TriggerEnrich</title>
<path fill="none" stroke="black" d="M821,-130.67C826.92,-131.63 832.81,-132.59 838.5,-133.5 876.43,-139.6 918.6,-146.22 953.7,-151.69"/>
<polygon fill="black" stroke="black" points="952.92,-155.11 963.34,-153.19 953.99,-148.19 952.92,-155.11"/>
<text text-anchor="middle" x="892.88" y="-169.67" font-family="Times,serif" font-size="14.00">Success</text>
<text text-anchor="middle" x="892.88" y="-153.17" font-family="Times,serif" font-size="14.00">(Update DB Nodes)</text>
</g>
<!-- Retry -->
<g id="node7" class="node">
<title>Retry</title>
<polygon fill="none" stroke="black" points="1084.38,-104 977.62,-104 977.62,-63 1084.38,-63 1084.38,-104"/>
<text text-anchor="middle" x="1031" y="-86.7" font-family="Courier New" font-size="14.00">Retry Queue</text>
<text text-anchor="middle" x="1031" y="-70.2" font-family="Courier New" font-size="14.00">(Backoff)</text>
</g>
<!-- Ingest&#45;&gt;Retry -->
<g id="edge6" class="edge">
<title>Ingest&#45;&gt;Retry</title>
<path fill="none" stroke="black" d="M794.8,-97.59C808.62,-92.45 823.93,-87.66 838.5,-85 880.59,-77.33 928.76,-76.99 966.25,-78.55"/>
<polygon fill="black" stroke="black" points="965.86,-82.04 976.02,-79.02 966.19,-75.04 965.86,-82.04"/>
<text text-anchor="middle" x="892.88" y="-88.2" font-family="Times,serif" font-size="14.00">Error</text>
</g>
<!-- TriggerEnrich&#45;&gt;Idle -->
<g id="edge8" class="edge">
<title>TriggerEnrich&#45;&gt;Idle</title>
<path fill="none" stroke="black" d="M965.17,-182.49C959.14,-183.96 953.1,-185.33 947.25,-186.5 859.52,-204.08 836.97,-211.5 747.5,-211.5 279.12,-211.5 279.12,-211.5 279.12,-211.5 198.83,-211.5 120.15,-151.26 79.24,-114.08"/>
<polygon fill="black" stroke="black" points="81.68,-111.57 71.97,-107.34 76.92,-116.7 81.68,-111.57"/>
<text text-anchor="middle" x="507.5" y="-214.7" font-family="Times,serif" font-size="14.00">No Data / Cached</text>
</g>
<!-- SidecarGen -->
<g id="node6" class="node">
<title>SidecarGen</title>
<polygon fill="none" stroke="black" points="1399.25,-41 1251.25,-41 1251.25,0 1399.25,0 1399.25,-41"/>
<text text-anchor="middle" x="1325.25" y="-23.7" font-family="Courier New" font-size="14.00">Generate Sidecar</text>
<text text-anchor="middle" x="1325.25" y="-7.2" font-family="Courier New" font-size="14.00">(.ember.json)</text>
</g>
<!-- TriggerEnrich&#45;&gt;SidecarGen -->
<g id="edge7" class="edge">
<title>TriggerEnrich&#45;&gt;SidecarGen</title>
<path fill="none" stroke="black" d="M1074.81,-142.55C1127.05,-116.99 1215.36,-73.78 1271.67,-46.23"/>
<polygon fill="black" stroke="black" points="1273,-49.47 1280.44,-41.94 1269.92,-43.19 1273,-49.47"/>
<text text-anchor="middle" x="1174" y="-124.45" font-family="Times,serif" font-size="14.00">Semantic Data Found</text>
</g>
<!-- SidecarGen&#45;&gt;Idle -->
<g id="edge9" class="edge">
<title>SidecarGen&#45;&gt;Idle</title>
<path fill="none" stroke="black" d="M1251.05,-14.27C1191.97,-9.78 1106.7,-4.5 1032,-4.5 279.12,-4.5 279.12,-4.5 279.12,-4.5 212.26,-4.5 140.37,-35.61 95.37,-59.27"/>
<polygon fill="black" stroke="black" points="93.84,-56.11 86.69,-63.92 97.15,-62.28 93.84,-56.11"/>
<text text-anchor="middle" x="614.38" y="-7.7" font-family="Times,serif" font-size="14.00">Complete</text>
</g>
<!-- Retry&#45;&gt;Idle -->
<g id="edge11" class="edge">
<title>Retry&#45;&gt;Idle</title>
<path fill="none" stroke="black" d="M977.37,-73.64C920.79,-63.92 828.11,-50.5 747.5,-50.5 279.12,-50.5 279.12,-50.5 279.12,-50.5 221.13,-50.5 155.81,-61.62 109.84,-71.32"/>
<polygon fill="black" stroke="black" points="109.1,-67.9 100.07,-73.43 110.58,-74.74 109.1,-67.9"/>
<text text-anchor="middle" x="507.5" y="-53.7" font-family="Times,serif" font-size="14.00">Abandoned</text>
</g>
<!-- Retry&#45;&gt;Ingest -->
<g id="edge10" class="edge">
<title>Retry&#45;&gt;Ingest</title>
<path fill="none" stroke="black" d="M977.21,-96.05C967.3,-98.1 956.99,-100.03 947.25,-101.5 909.67,-107.16 867.82,-111.09 832.16,-113.73"/>
<polygon fill="black" stroke="black" points="832.05,-110.22 822.33,-114.43 832.55,-117.21 832.05,-110.22"/>
<text text-anchor="middle" x="892.88" y="-116.42" font-family="Times,serif" font-size="14.00">Retry (Max 3)</text>
</g>
</g>
</svg>
